<svg width="127" height="33" viewBox="0 0 127 33" fill="none" xmlns="http://www.w3.org/2000/svg">
<path fill-rule="evenodd" clip-rule="evenodd" d="M104.48 21.7C106.97 21.7 108.94 19.01 108.94 15.7V7.7H110.94V15.7C110.94 20.1 108.06 23.65 104.52 23.65C100.98 23.65 98.1 20.1 98.1 15.7V7.7H100.1V15.7C100.02 19.06 101.99 21.75 104.47 21.75L104.48 21.7ZM56.31 23.77H54.31V22.34C53.0202 23.2428 51.4844 23.728 49.91 23.73C46.2102 23.7548 42.9761 21.2393 42.0896 17.6472C41.203 14.0551 42.8952 10.3237 46.1816 8.62416C49.468 6.9246 53.4911 7.70034 55.91 10.5L54.44 11.81C52.6009 9.75387 49.5968 9.21667 47.1592 10.508C44.7215 11.7994 43.4784 14.5865 44.1465 17.263C44.8145 19.9395 47.2214 21.8156 49.98 21.81C51.6617 21.8135 53.2612 21.0831 54.36 19.81H48.96V17.81H56.33L56.31 23.77ZM22.48 7.83H20.48V23.75H28.48V21.75H22.48V7.83ZM34.71 19.83C38.0237 19.83 40.71 17.1437 40.71 13.83C40.71 10.5163 38.0237 7.83 34.71 7.83C33.1187 7.83 31.5926 8.46214 30.4674 9.58736C29.3422 10.7126 28.71 12.2387 28.71 13.83C28.71 17.1437 31.3963 19.83 34.71 19.83ZM34.71 17.83C36.9191 17.83 38.71 16.0391 38.71 13.83C38.71 11.6209 36.9191 9.83 34.71 9.83C32.5009 9.83 30.71 11.6209 30.71 13.83C30.721 16.0313 32.5087 17.81 34.71 17.81V17.83ZM38.71 23.77V21.77H30.71V23.77H38.71ZM69.67 13.87C69.67 10.5563 66.9837 7.87 63.67 7.87L63.69 7.83C62.0883 7.82462 60.5509 8.4599 59.4202 9.59436C58.2895 10.7288 57.6593 12.2683 57.67 13.87C57.67 17.1837 60.3563 19.87 63.67 19.87C66.9837 19.87 69.67 17.1837 69.67 13.87ZM63.67 17.87C65.8792 17.87 67.67 16.0791 67.67 13.87C67.67 11.6609 65.8792 9.87 63.67 9.87C61.4609 9.87 59.67 11.6609 59.67 13.87C59.7029 16.0635 61.4963 17.8212 63.69 17.81L63.67 17.87ZM67.67 23.81V21.81H59.67V23.81H67.67ZM71.8 7.83H73.8V23.73H71.8V7.83ZM78.57 7.83H76.57V23.76H78.57V19.76H78.88C81.1654 20.0079 83.3915 18.9283 84.6119 16.9802C85.8322 15.0321 85.8322 12.5579 84.6119 10.6098C83.3915 8.66168 81.1654 7.58206 78.88 7.83C78.777 7.81907 78.6731 7.81907 78.57 7.83ZM78.57 9.83V9.87665L78.56 9.88L78.57 9.83ZM78.57 9.87665C78.6706 9.84332 78.7746 9.82097 78.88 9.81C80.4224 9.60461 81.9438 10.3123 82.7805 11.6241C83.6172 12.936 83.6172 14.614 82.7805 15.9259C81.9438 17.2377 80.4224 17.9454 78.88 17.74H78.57V9.87665ZM92.9469 9.00614L92.98 8.98L92.97 9.03L92.9469 9.00614ZM90.16 7.88C91.2061 7.84911 92.2167 8.25791 92.9469 9.00614L91.5 10.15C90.9787 9.6053 90.189 9.41198 89.4751 9.65425C88.7611 9.89653 88.2522 10.5305 88.17 11.28V11.44C88.17 12.32 88.78 12.91 89.97 12.99C94.55 13.27 96.65 15.42 96.65 18.26V18.44C96.4085 20.7354 94.8507 22.6793 92.663 23.415C90.4753 24.1507 88.0594 23.5431 86.48 21.86L88.01 20.68C88.7308 21.4525 89.7546 21.8693 90.81 21.82C92.8112 21.9255 94.5399 20.4349 94.73 18.44V18.3C94.73 15.63 92.11 15.14 89.84 14.92C87.74 14.72 86.23 13.41 86.23 11.52V11.44C86.3838 9.39653 88.1113 7.83164 90.16 7.88ZM124.29 23.7H126.29L126.27 7.83L119.67 16.52L113.07 7.83V23.73H115.07V13.8L119.68 19.8L124.29 13.8V23.7Z" fill="white"/>
<path fill-rule="evenodd" clip-rule="evenodd" d="M10.88 5.44C10.88 2.43557 8.44443 0 5.44 0C2.43557 0 0 2.43557 0 5.44V21.89L4.48 25.1V32.92H6.4V25.1L10.88 21.89V5.44ZM8.96 14.64L6.4 17.2V14.8L8.96 12.24V14.64ZM4.52 14.8L1.96 12.24V14.64L4.52 17.2V14.8ZM8.96 9.52L5.44 13.04L1.92 9.44V7.04L5.44 10.56L8.96 7.04V9.52ZM8.84 4.53C8.42201 2.99477 7.0311 1.92704 5.44 1.92V1.88C3.83749 1.89192 2.44286 2.97891 2.04 4.53L5.44 7.92L8.84 4.53ZM1.92 20.92V17.32L4.48 19.88V22.74L1.92 20.92ZM6.4 19.88V22.75L8.96 20.91V17.32L6.4 19.88Z" fill="#FFAC12"/>
</svg>
